<?xml version="1.0" encoding="UTF-8"?>
<svg version="1.1" xmlns="http://www.w3.org/2000/svg" width="1056" height="992">
<path d="M0 0 C348.48 0 696.96 0 1056 0 C1056 327.36 1056 654.72 1056 992 C707.52 992 359.04 992 0 992 C0 664.64 0 337.28 0 0 Z " fill="#10283E" transform="translate(0,0)"/>
<path d="M0 0 C348.48 0 696.96 0 1056 0 C1056 327.36 1056 654.72 1056 992 C707.52 992 359.04 992 0 992 C0 664.64 0 337.28 0 0 Z M39 20 C38.12638152 95.60843751 38.12638152 95.60843751 37.93897915 171.21475124 C37.94221529 173.04870527 37.9453579 174.88265947 37.94841858 176.7166138 C37.95323238 179.59381163 37.95809981 182.47100926 37.96325288 185.34820651 C37.98163561 195.64648716 37.99291277 205.94477407 38.00431585 216.24306439 C38.02540832 235.13853615 38.05136886 254.03399779 38.08058167 272.92945862 C38.12006434 298.4783992 38.15242269 324.02734094 38.18371582 349.57629395 C38.26225989 410.86337068 38.35045117 472.15043475 38.4375 533.4375 C38.623125 670.573125 38.80875 807.70875 39 949 C346.89 949 654.78 949 972 949 C972 642.43 972 335.86 972 20 C664.11 20 356.22 20 39 20 Z " fill="#0E0F10" transform="translate(0,0)"/>
<path d="M0 0 C9.57 0 19.14 0 29 0 C29.0093457 2.30524658 29.01869141 4.61049316 29.02832031 6.9855957 C29.06222143 14.63718281 29.11784266 22.28850393 29.18390274 29.93987751 C29.22326345 34.57492211 29.25550751 39.20977998 29.27099609 43.8449707 C29.2862383 48.32561297 29.32081631 52.80574145 29.36830902 57.28615379 C29.38304532 58.98795267 29.39103652 60.68982493 29.39188385 62.39168739 C29.40352889 74.06235581 29.65680488 85.71462471 38.3359375 94.62890625 C45.51408949 100.54329909 55.22895933 99.78668097 64 99 C69.74795572 97.6277403 73.44450458 94.28430795 76.65483093 89.39179993 C82.01274348 79.86507562 81.47156324 68.89097964 81.51171875 58.30078125 C81.52859591 56.61255107 81.54675015 54.92433322 81.56611633 53.23612976 C81.61329321 48.82878475 81.64331033 44.42148976 81.66955566 40.01397705 C81.69952572 35.50205613 81.74599885 30.99030707 81.79101562 26.47851562 C81.87668047 17.65241469 81.94265942 8.82633044 82 0 C91.24 0 100.48 0 110 0 C110.06802442 10.61459999 110.12295885 21.22905303 110.15543652 31.84382248 C110.17103134 36.77373158 110.19215547 41.70348262 110.22631836 46.63330078 C110.25913384 51.39900496 110.27689941 56.16455799 110.28463173 60.93036652 C110.29013568 62.74026109 110.30088252 64.55014825 110.31719017 66.35997772 C110.47115433 84.17014141 108.02934189 97.88378834 96 111.8125 C84.81298916 122.1469211 69.85786005 125.35458365 55.1875 125.3125 C53.51977539 125.33666992 53.51977539 125.33666992 51.81835938 125.36132812 C38.12043526 125.36934329 25.83829852 121.54831355 15.19921875 112.66015625 C5.48163206 102.85409381 -0.09721885 89.86553042 -0.12442017 76.0496521 C-0.11902725 74.93186874 -0.11902725 74.93186874 -0.11352539 73.79150391 C-0.11367142 72.99083496 -0.11381744 72.19016602 -0.1139679 71.36523438 C-0.1132748 68.73564891 -0.10551076 66.1061355 -0.09765625 63.4765625 C-0.09578993 61.64667805 -0.09436704 59.81679309 -0.09336853 57.98690796 C-0.08956023 53.18323372 -0.0797444 48.37958997 -0.06866455 43.57592773 C-0.05841411 38.66911227 -0.05386314 33.76229185 -0.04882812 28.85546875 C-0.03812056 19.23696365 -0.02053747 9.61848914 0 0 Z " fill="#FAFAFA" transform="translate(278,363)"/>
<path d="M0 0 C10.89 0 21.78 0 33 0 C33.78375 2.248125 34.5675 4.49625 35.375 6.8125 C41.20866391 23.41781129 47.4301215 39.88895256 53.6328125 56.359375 C54.61378995 58.97157782 55.58780326 61.58572513 56.5546875 64.203125 C59.16017268 71.23890178 61.83828361 78.19014931 65 85 C65.433125 83.824375 65.86625 82.64875 66.3125 81.4375 C67.27972618 78.84316436 68.2977515 76.33976842 69.4375 73.8125 C70.84431851 70.59066694 71.86063456 67.30242311 72.875 63.9375 C75.61041624 54.86798304 78.69167238 45.95424686 82.4375 37.25 C84.91505238 31.43517674 86.90818617 25.50065922 88.85717773 19.49316406 C91.0007432 12.89148145 93.42218146 6.44454635 96 0 C105.9 0 115.8 0 126 0 C124.7625 3.63 123.525 7.26 122.25 11 C121.86875977 12.12792969 121.48751953 13.25585938 121.09472656 14.41796875 C119.31452364 19.58547693 117.38593973 24.46823517 114.84375 29.30615234 C113.71541338 31.57131422 113.02149187 33.87063012 112.375 36.3125 C111.53214574 39.47072451 110.85570984 41.21643523 109 44 C108.33841957 46.04584079 108.33841957 46.04584079 107.875 48.1875 C107.58625 49.445625 107.2975 50.70375 107 52 C106.34 52 105.68 52 105 52 C104.76216797 52.96486328 104.76216797 52.96486328 104.51953125 53.94921875 C101.63549578 65.11888098 97.23394098 75.53726968 92.52539062 86.03320312 C90.19878556 91.31536363 88.43880671 96.65646024 86.921875 102.23046875 C86 105 86 105 83 110 C81.68 113.63 80.36 117.26 79 121 C68.44 121 57.88 121 47 121 C46.01 117.7 45.02 114.4 44 111 C41.06221347 102.23290476 37.46095466 93.73410558 33.81640625 85.2421875 C31.21624509 79.12115239 28.87746522 72.94214096 26.625 66.6875 C24.24319828 60.09908199 21.60530056 53.74676236 18.56396484 47.43798828 C12.59745393 35.00972247 8.06793346 21.92589585 3.3125 9 C2.219375 6.03 1.12625 3.06 0 0 Z " fill="#F7F8F8" transform="translate(277,502)"/>
<path d="M0 0 C0.98162109 -0.01611328 1.96324219 -0.03222656 2.97460938 -0.04882812 C14.44418816 -0.05641885 23.6808622 3.136808 32.6875 10.3125 C38.16566388 15.86407311 42.17717456 21.92685831 44.6875 29.3125 C44.91179687 29.96089844 45.13609375 30.60929688 45.3671875 31.27734375 C47.61383247 39.29448094 46.6875 46.74490736 46.6875 55.3125 C24.2475 55.3125 1.8075 55.3125 -21.3125 55.3125 C-17.73459323 64.25726693 -15.97277968 67.68892139 -8.54296875 72.4453125 C-2.05325744 74.9684577 7.4785768 74.27551263 13.8125 71.5625 C16.36808238 70.22477489 18.24450753 68.85451603 20.5 67 C21.221875 66.443125 21.94375 65.88625 22.6875 65.3125 C25.73162255 65.71425248 27.8477522 66.88715452 30.359375 68.59765625 C31.02324219 69.04560547 31.68710937 69.49355469 32.37109375 69.95507812 C33.05300781 70.42365234 33.73492187 70.89222656 34.4375 71.375 C35.13488281 71.84744141 35.83226562 72.31988281 36.55078125 72.80664062 C38.26654993 73.97007281 39.97750398 75.14059974 41.6875 76.3125 C40.46719244 82.07131314 36.45431832 84.18244146 31.6875 87.3125 C18.05848169 95.25608764 4.10508925 98.67708085 -11.73828125 95.66015625 C-26.72844213 91.47727304 -37.18657486 83.47583808 -45.3125 70.3125 C-50.56811098 57.78987137 -51.46141458 43.67709045 -47.25 30.75 C-42.16816373 18.40839762 -32.84867854 9.08917855 -20.8671875 3.3203125 C-13.7237532 0.50226044 -7.6512043 -0.02482545 0 0 Z " fill="#F7F7F7" transform="translate(439.3125,528.6875)"/>
<path d="M0 0 C7.80642454 5.87461157 12.66116362 15.64465449 15 25 C15 31.6 15 38.2 15 45 C-7.44 45 -29.88 45 -53 45 C-50.24699193 52.34135486 -48.25760512 57.28354687 -41.5625 61.375 C-34.58538392 64.47594048 -26.58476061 64.31227844 -19.5 61.71875 C-15.61762316 59.81489213 -12.07184381 58.07184381 -9 55 C-4.71923487 55.57095115 -1.32554448 58.04144786 2.25 60.3125 C2.8996875 60.70373047 3.549375 61.09496094 4.21875 61.49804688 C6.078125 62.67578125 6.078125 62.67578125 9 65 C9 69.60344828 9 69.60344828 6.375 72.3125 C-4.64920419 82.66857061 -19.97073545 86.5248361 -34.70654297 86.42211914 C-48.5002267 85.949308 -60.52421948 79.44608331 -69.95703125 69.5625 C-80.50441672 56.33289222 -81.15271781 41.17426041 -80 25 C-78.13519102 14.23603931 -71.14429711 5.05293479 -62.5625 -1.4375 C-43.62252763 -14.25678782 -18.55725164 -13.49916889 0 0 Z " fill="#F7F8F8" transform="translate(722,539)"/>
<path d="M0 0 C8.30497967 3.9361111 8.30497967 3.9361111 16.9375 7.0625 C18.26031594 7.60029222 19.5737626 8.1619152 20.875 8.75 C22.01582031 9.26433594 22.01582031 9.26433594 23.1796875 9.7890625 C25.31450879 10.77482984 27.44377386 11.77006294 29.5703125 12.7734375 C35.95434561 15.78333901 42.29624297 18.65790694 48.9375 21.0625 C51.28949676 22.08156944 53.62538202 23.1305948 55.95703125 24.1953125 C58.07844854 25.1599522 58.07844854 25.1599522 60.9375 26.0625 C60.9375 26.7225 60.9375 27.3825 60.9375 28.0625 C61.9584375 28.2171875 61.9584375 28.2171875 63 28.375 C66.56665989 29.20975019 69.59972194 30.55722754 72.9375 32.0625 C71.9375 35.0625 71.9375 35.0625 70.05493164 36.24511719 C67.37952834 37.45828566 64.69775922 38.64976761 62 39.8125 C60.63004883 40.44865234 60.63004883 40.44865234 59.23242188 41.09765625 C49.49689772 45.32809633 41.95721089 43.70148646 32.1875 40.5 C25.83440824 38.48871969 19.45992079 36.64481414 13.00390625 34.9921875 C11.98189621 34.72877312 11.98189621 34.72877312 10.9392395 34.46003723 C8.19270796 33.75312071 5.44623113 33.04732227 2.6932373 32.36593628 C0.7575749 31.88647776 -1.17405847 31.39084139 -3.10546875 30.89453125 C-4.22977295 30.61327393 -5.35407715 30.3320166 -6.51245117 30.04223633 C-7.35396729 29.71892334 -8.1954834 29.39561035 -9.0625 29.0625 C-9.3925 28.0725 -9.7225 27.0825 -10.0625 26.0625 C-13.55634279 24.89788574 -16.39905389 24.92681681 -20.0625 25.0625 C-21.39437793 26.17416864 -21.39437793 26.17416864 -21.25 29 C-21.39528733 32.17142859 -21.39528733 32.17142859 -19.0625 34.0625 C-16.86789636 34.52847748 -14.65480723 34.90799298 -12.4375 35.25 C-1.98800316 37.01595765 8.04705083 40.17635025 18.17675781 43.234375 C21.92068997 44.35742221 25.67676105 45.43483979 29.4375 46.5 C30.5203125 46.80808594 31.603125 47.11617188 32.71875 47.43359375 C33.4509375 47.64113281 34.183125 47.84867187 34.9375 48.0625 C33.39371416 51.15007168 30.90312041 51.55370803 27.76953125 52.890625 C27.13826828 53.16211365 26.50700531 53.43360229 25.85661316 53.71331787 C23.82367031 54.5859236 21.78696325 55.44932688 19.75 56.3125 C18.42747548 56.87830148 17.10520692 57.44470165 15.78320312 58.01171875 C13.15022211 59.14019146 10.51469858 60.2624203 7.87744141 61.38085938 C5.22042435 62.5098628 2.57298291 63.65818149 -0.06884766 64.82226562 C-0.70744217 65.10181091 -1.34603668 65.3813562 -2.00398254 65.66937256 C-3.7585318 66.43845927 -5.51081084 67.21271914 -7.26293945 67.98730469 C-10.0625 69.0625 -10.0625 69.0625 -13.0625 69.0625 C-13.0625 69.7225 -13.0625 70.3825 -13.0625 71.0625 C-18.29376818 71.48386355 -21.35512738 70.21468372 -25.9375 67.75 C-30.2212692 65.49916823 -34.42486584 63.44138289 -38.99609375 61.84765625 C-41.63020948 60.84679186 -44.14065715 59.64355333 -46.6875 58.4375 C-52.75793855 55.5970731 -58.91728005 53.02514768 -65.125 50.5 C-66.08470703 50.10949463 -67.04441406 49.71898926 -68.03320312 49.31665039 C-71.92774706 47.73491072 -75.82441637 46.15854654 -79.72265625 44.5859375 C-86.68071683 41.74404188 -93.38352718 38.50856576 -100.0625 35.0625 C-100.0625 34.0725 -100.0625 33.0825 -100.0625 32.0625 C-92.53928963 28.20073373 -85.02958395 24.5517262 -77.1875 21.37109375 C-71.6880965 19.06821853 -66.31697158 16.48419681 -60.92626953 13.93994141 C-57.97743347 12.55166307 -55.0204986 11.18112622 -52.0625 9.8125 C-50.5775 9.12414062 -50.5775 9.12414062 -49.0625 8.421875 C-47.00371785 7.48898934 -44.92956144 6.58952565 -42.84375 5.71875 C-39.84287477 4.44420244 -36.94069611 3.017858 -34.03125 1.546875 C-33.13792969 1.10085938 -32.24460937 0.65484375 -31.32421875 0.1953125 C-29.47677538 -0.72971572 -27.63558928 -1.66734345 -25.80078125 -2.6171875 C-15.70125586 -7.60136886 -9.68775145 -4.62031223 0 0 Z " fill="#F8F9F9" transform="translate(665.0625,357.9375)"/>
<path d="M0 0 C7.52911954 5.55272566 10.5969875 14.03279851 12.25 22.90234375 C12.63018195 28.07879124 12.60204835 33.2290282 12.54296875 38.4140625 C12.53735947 39.87807272 12.53309568 41.34208865 12.53010559 42.80610657 C12.51876143 46.62181704 12.48938706 50.43717389 12.45599365 54.25274658 C12.42506503 58.16128763 12.41155203 62.06988695 12.39648438 65.97851562 C12.3645048 73.61997001 12.31182523 81.26106187 12.25 88.90234375 C3.01 88.90234375 -6.23 88.90234375 -15.75 88.90234375 C-15.76417969 84.72449219 -15.77835937 80.54664063 -15.79296875 76.2421875 C-15.81823798 72.89732963 -15.84846911 69.55259794 -15.88204193 66.20781708 C-15.91605282 62.68443763 -15.94145089 59.16149145 -15.94555664 55.63793945 C-15.9506794 51.58883706 -15.99586139 47.54102075 -16.04296875 43.4921875 C-16.0390361 42.23776352 -16.03510345 40.98333954 -16.03105164 39.69090271 C-16.15209885 32.41506851 -16.67215505 28.25854311 -21.75 22.90234375 C-26.53808862 19.52891768 -31.08029111 19.1899196 -36.75 19.90234375 C-42.46850458 21.61789512 -45.42042826 23.95555146 -48.75 28.90234375 C-51.11785298 35.18938373 -51.09416116 41.29645066 -51.1640625 47.9609375 C-51.18342865 49.1052272 -51.2027948 50.24951691 -51.2227478 51.42848206 C-51.2822908 55.06552797 -51.32882812 58.70260596 -51.375 62.33984375 C-51.413203 64.81316447 -51.45225608 67.28647221 -51.4921875 69.75976562 C-51.58956352 75.80722227 -51.66933443 81.85454896 -51.75 87.90234375 C-60.66 87.90234375 -69.57 87.90234375 -78.75 87.90234375 C-78.75 57.87234375 -78.75 27.84234375 -78.75 -3.09765625 C-69.84 -3.09765625 -60.93 -3.09765625 -51.75 -3.09765625 C-51.42 0.20234375 -51.09 3.50234375 -50.75 6.90234375 C-50.14414062 6.37125 -49.53828125 5.84015625 -48.9140625 5.29296875 C-34.96746995 -6.46508159 -16.19562862 -10.15841884 0 0 Z " fill="#F8F8F8" transform="translate(481.75,398.09765625)"/>
<path d="M0 0 C1.1873877 0.0002417 2.37477539 0.0004834 3.59814453 0.00073242 C15.68970993 0.23461977 25.75520274 3.07672531 36 9.5625 C34.16753428 13.54962321 31.76144225 17.14334504 29.375 20.8125 C28.95476562 21.4621875 28.53453125 22.111875 28.1015625 22.78125 C27.06954327 24.37618881 26.03501972 25.96950669 25 27.5625 C21.77681969 26.92750937 18.96080272 25.67994244 15.97412109 24.33959961 C8.39232134 21.00961118 1.38099386 19.05672255 -7 20.5625 C-9.83578841 21.7524923 -9.83578841 21.7524923 -12 23.5625 C-12.75 27.0625 -12.75 27.0625 -12 30.5625 C-8.82416966 33.77753813 -5.02105339 34.49983848 -0.75 35.4375 C28.99434794 42.49548087 28.99434794 42.49548087 35.5 51.75 C39.13557419 58.56670161 38.99158723 67.2952614 37.57421875 74.82421875 C34.24498541 83.58643411 27.17258589 88.47501895 19.0625 92.3359375 C5.30500776 97.84595353 -12.85410608 97.74461863 -26.8984375 92.91796875 C-32.47253843 90.4819322 -37.76326139 87.65930888 -43 84.5625 C-42.38903209 81.64562094 -41.48685442 79.42834666 -39.93359375 76.890625 C-39.53076172 76.22675781 -39.12792969 75.56289063 -38.71289062 74.87890625 C-38.08157227 73.85603516 -38.08157227 73.85603516 -37.4375 72.8125 C-37.01275391 72.11511719 -36.58800781 71.41773438 -36.15039062 70.69921875 C-35.10489914 68.98414283 -34.05306649 67.27293527 -33 65.5625 C-30.03653749 66.696478 -27.49176503 67.86548623 -24.75 69.5 C-17.44438165 73.64140149 -11.10800639 74.84713413 -2.75 74.9375 C-1.57860474 74.95828613 -1.57860474 74.95828613 -0.38354492 74.97949219 C4.18807526 74.94219287 7.33387628 74.59259056 11 71.5625 C12.08415064 68.65154537 12.08415064 68.65154537 11 65.5625 C5.47695865 60.50950472 -0.41875667 59.7543547 -7.56152344 58.65332031 C-18.94381168 56.87187494 -28.14122363 53.28793442 -35.703125 44.34375 C-38.94707032 39.88821064 -39.33767293 36.20245616 -39.3125 30.75 C-39.32861328 30.06357422 -39.34472656 29.37714844 -39.36132812 28.66992188 C-39.36885296 20.71617239 -36.18408943 15.09646093 -30.8828125 9.3515625 C-22.35483784 1.24821728 -11.24911218 -0.0213741 0 0 Z " fill="#F7F7F7" transform="translate(599,528.4375)"/>
<path d="M0 0 C4.75 0.875 4.75 0.875 7 2 C13.46260208 2.4608489 18.78893911 1.80685408 25 0 C28.61208328 -0.8563406 31.39553905 -0.97431508 35 0 C39.1327823 2.76758301 42.68275235 6.00436116 46.296875 9.40917969 C49.04628552 11.97729307 51.89568619 14.42483682 54.75 16.875 C55.59473877 17.61145752 55.59473877 17.61145752 56.45654297 18.36279297 C59.75835345 21.20880105 63.13838049 23.87284369 66.6640625 26.4375 C67.4468457 27.01129395 68.22962891 27.58508789 69.03613281 28.17626953 C70.5672919 29.28835773 72.11065575 30.38387819 73.66699219 31.46044922 C78.87821599 35.24988108 78.87821599 35.24988108 79.5390625 39.3203125 C79 42 79 42 78 43 C73.79604473 43.6200524 72.26088487 43.17970692 68.7109375 40.734375 C67.58579441 39.75449686 66.4739918 38.75912098 65.375 37.75 C64.81554687 37.25886719 64.25609375 36.76773438 63.6796875 36.26171875 C61.28883076 34.14716385 58.99984883 31.99984351 56.78125 29.703125 C54.43100708 27.45596291 52.07915878 26.98533081 49 26 C45.92407388 24.18240729 43.44296331 22.43558059 40.890625 19.92578125 C37.06525113 16.34418121 34.59948087 14.12469965 29.2421875 13.70703125 C25.77560007 13.96965151 22.41764783 14.36965573 19 15 C19.66 16.65 20.32 18.3 21 20 C21.76183594 19.835 22.52367187 19.67 23.30859375 19.5 C31.64481617 18.16786958 31.64481617 18.16786958 35.44921875 20.50390625 C36.93464318 21.90932578 38.38566077 23.35178779 39.8046875 24.82421875 C42.01015003 27.01005972 44.04864766 28.36797546 46.75 29.875 C55.13006187 34.64861897 62.49668062 40.98070128 70 47 C69.25 51.75 69.25 51.75 67 54 C62.14546072 53.85470569 59.0796537 51.02339685 55.5 48.0625 C51.85746684 45.0749467 48.54136254 42.48272098 44 41 C48.47437874 47.01726797 54.13666379 51.3791571 60 56 C59.42655063 58.86724686 59.1385485 59.8614515 57 62 C52.88095398 61.71070245 50.52695781 60.19205843 47.375 57.625 C46.61960937 57.01914062 45.86421875 56.41328125 45.0859375 55.7890625 C43 54 43 54 41.4140625 52.3359375 C39.92447252 50.74058327 39.92447252 50.74058327 37 50 C39.73276868 55.17404203 43.51100824 58.10487667 48.015625 61.71875 C48.67046875 62.4715625 49.3253125 63.224375 50 64 C49.796875 66.78125 49.796875 66.78125 49 69 C45.74388752 69.56981968 43.70988904 69.49365847 40.9609375 67.58203125 C38.04650705 65.02235357 35.34527195 62.3836355 32.75 59.5 C31.13766436 57.81414402 31.13766436 57.81414402 29.0625 57.875 C25.88519234 59.60807691 24.1931938 62.13666365 22 65 C17.125 64.125 17.125 64.125 16 63 C15.5 60.875 15.5 60.875 16 58 C17.70778591 56.05312406 19.5221914 54.3555385 21.46875 52.6484375 C23.34029214 51.00864927 23.34029214 51.00864927 23 48 C20.46195258 48.38669821 19.26909965 48.70624462 17.5078125 50.62890625 C17.05148437 51.26699219 16.59515625 51.90507812 16.125 52.5625 C13.4064361 55.92965529 13.4064361 55.92965529 9.75 56.5625 C7 56 7 56 5 54 C5.25076955 50.14947394 7.36611645 48.31798433 10.0625 45.75 C10.79597656 45.04359375 11.52945313 44.3371875 12.28515625 43.609375 C12.85105469 43.07828125 13.41695312 42.5471875 14 42 C13.67 41.01 13.34 40.02 13 39 C10.29287142 39.36677226 9.24420429 39.70458152 7.47265625 41.84765625 C6.53212147 43.32489509 5.59462031 44.80406976 4.66015625 46.28515625 C3 48 3 48 0.43359375 48.37109375 C-2 48 -2 48 -4 46 C-3.90940703 41.9233165 -3.34312991 40.3602864 -0.5 37.375 C0.325 36.59125 1.15 35.8075 2 35 C2.86119134 32.82653432 2.86119134 32.82653432 3 31 C-1.41889613 32.35021826 -3.34345343 34.26115668 -6 38 C-9.875 37.125 -9.875 37.125 -11 36 C-11.2632246 32.05163095 -11.08997373 29.39620731 -9 26 C-9.66 25.67 -10.32 25.34 -11 25 C-10.42286127 20.96002891 -9.08225263 18.47042106 -7 15 C-6.31212479 13.34197409 -5.64737793 11.67425328 -5 10 C-3.61551366 6.43228521 -2.13262738 3.19894107 0 0 Z " fill="#F3F5F4" transform="translate(605,439)"/>
<path d="M0 0 C0 8.58 0 17.16 0 26 C-2.165625 26.103125 -4.33125 26.20625 -6.5625 26.3125 C-15.30635023 26.95530067 -20.56834374 28.71451775 -27 35 C-30.83319025 40.65762217 -30.47367079 46.37261324 -30.51171875 52.9609375 C-30.52966995 54.10664215 -30.54762115 55.2523468 -30.56611633 56.43276978 C-30.62015437 60.08014279 -30.65409518 63.7273854 -30.6875 67.375 C-30.7206787 69.8528827 -30.75516887 72.33074821 -30.79101562 74.80859375 C-30.87833789 80.87241396 -30.93846525 86.93564416 -31 93 C-40.24 93 -49.48 93 -59 93 C-59 62.97 -59 32.94 -59 2 C-50.09 2 -41.18 2 -32 2 C-31.505 8.93 -31.505 8.93 -31 16 C-30.484375 15.13375 -29.96875 14.2675 -29.4375 13.375 C-22.09463592 2.52700569 -12.68355467 0 0 0 Z " fill="#F8F9F9" transform="translate(555,529)"/>
<path d="M0 0 C8.91 0 17.82 0 27 0 C27 30.36 27 60.72 27 92 C18.09 92 9.18 92 0 92 C0 61.64 0 31.28 0 0 Z " fill="#FAFAFB" transform="translate(508,395)"/>
<path d="M0 0 C1.99225129 10.34968279 3.51529965 20.45358894 4 31 C1.78094414 32.2311406 -0.44692752 33.43420624 -2.6875 34.625 C-3.31333984 34.975625 -3.93917969 35.32625 -4.58398438 35.6875 C-7.47838939 37.2028953 -9.34031865 38.12758455 -12.60546875 37.49609375 C-15.50601987 35.68384076 -18.03204465 33.6705168 -20.625 31.4375 C-21.67384345 30.53962145 -22.72333873 29.64250384 -23.7734375 28.74609375 C-24.30420898 28.29089355 -24.83498047 27.83569336 -25.38183594 27.36669922 C-26.97623847 26.02006896 -28.59369442 24.70977578 -30.2265625 23.41015625 C-31.22429688 22.61480469 -32.22203125 21.81945312 -33.25 21 C-34.61898437 19.9171875 -34.61898437 19.9171875 -36.015625 18.8125 C-36.67046875 18.214375 -37.3253125 17.61625 -38 17 C-38 16.34 -38 15.68 -38 15 C-37.1529248 14.65219482 -36.30584961 14.30438965 -35.43310547 13.94604492 C-32.26780418 12.64512039 -29.10335713 11.34215896 -25.93945312 10.0378418 C-24.57422627 9.47550912 -23.20867133 8.91397224 -21.84277344 8.35327148 C-19.87085975 7.54363539 -17.90017367 6.73107195 -15.9296875 5.91796875 C-14.74616699 5.43094482 -13.56264648 4.9439209 -12.34326172 4.44213867 C-10.11133149 3.47938039 -7.91242514 2.43625107 -5.75439453 1.31762695 C-3 0 -3 0 0 0 Z " fill="#F2F3F3" transform="translate(697,431)"/>
<path d="M0 0 C3.23013729 0.6008558 5.70607098 1.19129436 8.5 2.9375 C10.65884978 4.24789353 12.47911827 5.17706545 14.875 6.0625 C15.57625 6.371875 16.2775 6.68125 17 7 C18.32313819 10.96941458 17.30364863 12.16066095 15.578125 15.91796875 C15.04703125 17.09037109 14.5159375 18.26277344 13.96875 19.47070312 C13.39630638 20.70985406 12.82338612 21.9487849 12.25 23.1875 C11.14705868 25.59586577 10.04994895 28.00680167 8.953125 30.41796875 C8.43685547 31.55282715 7.92058594 32.68768555 7.38867188 33.85693359 C5.76703395 37.52728637 4.33755083 41.21812214 3 45 C-1.55315948 44.38188466 -5.28459767 42.53234107 -9.3125 40.4375 C-9.95767578 40.10814453 -10.60285156 39.77878906 -11.26757812 39.43945312 C-12.84785228 38.63175745 -14.42432105 37.81662387 -16 37 C-15.48000884 30.96010269 -12.88518442 26.10414638 -10.25 20.75 C-9.81945312 19.85925781 -9.38890625 18.96851563 -8.9453125 18.05078125 C-6.01593072 12.007835 -3.01489716 6.00064922 0 0 Z " fill="#F4F5F4" transform="translate(582,424)"/>
<path d="M0 0 C0.66 0 1.32 0 2 0 C2.51046875 1.17755859 2.51046875 1.17755859 3.03125 2.37890625 C8.05320028 13.26425062 13.78827324 18.82155554 25 23 C25 23.66 25 24.32 25 25 C24.21496094 25.3403125 23.42992187 25.680625 22.62109375 26.03125 C11.73574938 31.05320028 6.17844446 36.78827324 2 48 C1.34 48 0.68 48 0 48 C-0.3403125 47.21496094 -0.680625 46.42992187 -1.03125 45.62109375 C-6.05320028 34.73574938 -11.78827324 29.17844446 -23 25 C-23 24.34 -23 23.68 -23 23 C-22.21496094 22.6596875 -21.42992187 22.319375 -20.62109375 21.96875 C-9.73574938 16.94679972 -4.17844446 11.21172676 0 0 Z " fill="#858686" transform="translate(999,912)"/>
<path d="M0 0 C4.49301299 2.16627412 7.21366677 4.89596335 10 9 C10.53125 12.15625 10.53125 12.15625 10.5 15.5 C10.5103125 16.6034375 10.520625 17.706875 10.53125 18.84375 C9.7319082 23.59278071 7.34475041 26.00005739 3.5625 28.8125 C-1.83860255 30.61286752 -7.37400289 30.89424485 -13 30 C-17.28914198 27.15677274 -20.20740634 23.85335198 -22 19 C-22.93546327 14.10614125 -22.60396391 10.31219587 -19.8125 6.125 C-14.6383559 -0.67530367 -7.96560639 -0.97273348 0 0 Z " fill="#F6F7F7" transform="translate(527,353)"/>
<path d="M0 0 C7.74711726 4.98300668 9.0469626 8.38125358 11.13671875 17.78515625 C-2.72328125 17.78515625 -16.58328125 17.78515625 -30.86328125 17.78515625 C-29.70137649 7.32801339 -29.70137649 7.32801339 -25.86328125 3.78515625 C-25.363125 3.31980469 -24.86296875 2.85445312 -24.34765625 2.375 C-17.6019417 -2.88959027 -7.75744353 -3.29135735 0 0 Z " fill="#152B40" transform="translate(448.86328125,550.21484375)"/>
<path d="M0 0 C2.81433697 2.04039431 5.143705 4.25984708 7.5 6.8125 C8.16 7.4725 8.82 8.1325 9.5 8.8125 C9.995 13.2675 9.995 13.2675 10.5 17.8125 C-3.03 17.8125 -16.56 17.8125 -30.5 17.8125 C-29.2829215 9.29295051 -26.97719781 5.65102882 -20.4375 0.3125 C-14.31018451 -2.76483479 -6.30678245 -2.13980119 0 0 Z " fill="#162D42" transform="translate(699.5,550.1875)"/>
<path d="M0 0 C1.4540625 0.0309375 1.4540625 0.0309375 2.9375 0.0625 C2.98648438 1.15949219 3.03546875 2.25648438 3.0859375 3.38671875 C3.16100591 4.84116925 3.23655197 6.29559516 3.3125 7.75 C3.3434375 8.47123047 3.374375 9.19246094 3.40625 9.93554688 C3.63544175 14.11829631 4.34479562 17.16520064 5.9375 21.0625 C6.46639132 23.9426341 6.76818246 26.83764632 7.0625 29.75 C7.14741699 30.54712402 7.23233398 31.34424805 7.31982422 32.16552734 C7.89180097 37.82429932 8.12104264 43.37267821 7.9375 49.0625 C4.78780499 50.90836777 2.44865326 51.33420838 -1.1875 51.3125 C-2.49074219 51.32023437 -2.49074219 51.32023437 -3.8203125 51.328125 C-6.0625 51.0625 -6.0625 51.0625 -8.0625 49.0625 C-8.109375 46.21875 -8.109375 46.21875 -7.8125 42.5625 C-7.7609375 41.9025 -7.709375 41.2425 -7.65625 40.5625 C-7.16894402 34.62622718 -6.49101433 28.71017424 -5.79614258 22.79516602 C-5.06618786 16.47412687 -4.63803309 10.16206667 -4.30859375 3.80859375 C-3.9626211 -0.05202164 -3.93200662 0.08024503 0 0 Z " fill="#E9ECEB" transform="translate(717.0625,408.9375)"/>
<path d="M0 0 C3.625 0.375 3.625 0.375 5.1875 2.21484375 C8.97940284 5.57529611 13.39390658 6.17162959 18.25 7.3125 C20.31792186 7.82726799 22.38562762 8.34290478 24.453125 8.859375 C25.48630859 9.11267578 26.51949219 9.36597656 27.58398438 9.62695312 C32.06768518 10.72988017 36.53793862 11.87527459 41 13.0625 C42.14009521 13.34758423 42.14009521 13.34758423 43.30322266 13.63842773 C45.3984375 14.19921875 45.3984375 14.19921875 48.625 15.375 C49.8327558 18.99826739 49.16811128 20.01646369 47.625 23.375 C36.41659018 20.89280745 25.37675455 17.97397457 14.35766602 14.74975586 C8.74431421 13.13431 3.4262059 12.00542006 -2.375 11.375 C-4.375 10.1875 -4.375 10.1875 -5.375 8.375 C-5.6875 5.3125 -5.6875 5.3125 -5.375 2.375 C-3.375 0.375 -3.375 0.375 0 0 Z " fill="#182C3F" transform="translate(648.375,381.625)"/>
<path d="M0 0 C0.90878906 0.79921875 1.81757812 1.5984375 2.75390625 2.421875 C3.71554687 3.24300781 4.6771875 4.06414062 5.66796875 4.91015625 C6.54195312 5.65652344 7.4159375 6.40289062 8.31640625 7.171875 C11.18391259 9.38656607 13.71522106 11.00558973 17.25390625 11.984375 C20.95475875 13.41939944 22.70401422 15.37693413 25.38671875 18.2265625 C29.74212098 22.61723115 34.68856475 26.56756911 40.31640625 29.171875 C39.32640625 29.171875 38.33640625 29.171875 37.31640625 29.171875 C37.31640625 30.161875 37.31640625 31.151875 37.31640625 32.171875 C31.39715404 32.171875 28.77580107 29.09405512 24.72265625 25.27734375 C22.42322778 23.26534384 20.21775595 21.79901955 17.56640625 20.296875 C13.20707182 17.81561861 9.27406451 14.98703424 5.31640625 11.921875 C4.75211914 11.48504395 4.18783203 11.04821289 3.60644531 10.59814453 C1.40093384 8.87177068 -0.70129925 7.1541695 -2.68359375 5.171875 C-6.81235786 4.89036836 -10.62997886 5.39975788 -14.68359375 6.171875 C-16.68359375 3.171875 -16.68359375 3.171875 -16.68359375 0.171875 C-15.28941602 -0.16831652 -13.89314717 -0.49994279 -12.49609375 -0.828125 C-11.33013672 -1.1065625 -11.33013672 -1.1065625 -10.140625 -1.390625 C-3.71969238 -2.53393892 -3.71969238 -2.53393892 0 0 Z " fill="#24384A" transform="translate(640.68359375,453.828125)"/>
<path d="M0 0 C0.99 0.66 1.98 1.32 3 2 C2.01 2 1.02 2 0 2 C5.69024599 7.86806618 11.87465415 13.12694805 18.1875 18.3125 C18.98542969 18.96863281 19.78335938 19.62476563 20.60546875 20.30078125 C23.05199365 22.03689599 25.11501204 23.17773144 28 24 C31.18362436 22.7000156 31.18362436 22.7000156 34 21 C34.66 21 35.32 21 36 21 C36 21.66 36 22.32 36 23 C32.27034861 25.03435531 30.33094958 26 26 26 C26 29.3 26 32.6 26 36 C25.67 36 25.34 36 25 36 C24.77957031 35.09636719 24.55914063 34.19273437 24.33203125 33.26171875 C22.7269364 29.33135453 21.16176234 28.19156441 17.6875 25.8125 C12.9505481 22.44120733 8.42575117 18.95847556 4 15.1875 C3.46076904 14.73157471 2.92153809 14.27564941 2.3659668 13.8059082 C-0.55005184 11.31792059 -3.33158935 8.75179848 -6 6 C-5.195625 5.7525 -4.39125 5.505 -3.5625 5.25 C-0.828919 4.27761141 -0.828919 4.27761141 -0.1875 1.875 C-0.125625 1.25625 -0.06375 0.6375 0 0 Z " fill="#23394A" transform="translate(659,444)"/>
<path d="M0 0 C2.03448779 0.41740567 4.05401678 0.90895178 6.0625 1.4375 C7.16722656 1.72496094 8.27195312 2.01242187 9.41015625 2.30859375 C10.26480469 2.53675781 11.11945312 2.76492188 12 3 C11.01 3.495 11.01 3.495 10 4 C10 4.66 10 5.32 10 6 C10.66 6 11.32 6 12 6 C11.67 6.66 11.34 7.32 11 8 C10.34 7.67 9.68 7.34 9 7 C9 7.66 9 8.32 9 9 C9.99 9.33 10.98 9.66 12 10 C9.26550363 11.36724819 8.11398588 10.64208017 5.2109375 9.78515625 C4.26992188 9.51123047 3.32890625 9.23730469 2.359375 8.95507812 C1.37453125 8.66052734 0.3896875 8.36597656 -0.625 8.0625 C-2.11386719 7.62647461 -2.11386719 7.62647461 -3.6328125 7.18164062 C-6.09051863 6.46087104 -8.54604104 5.733407 -11 5 C-11 4.67 -11 4.34 -11 4 C-10.28972656 3.79503906 -9.57945312 3.59007812 -8.84765625 3.37890625 C-7.92855469 3.10949219 -7.00945313 2.84007812 -6.0625 2.5625 C-4.68771484 2.16224609 -4.68771484 2.16224609 -3.28515625 1.75390625 C-1.0597507 1.20973949 -1.0597507 1.20973949 0 0 Z " fill="#24394C" transform="translate(669,390)"/>
<path d="M0 0 C0.33 0 0.66 0 1 0 C1.33 2.31 1.66 4.62 2 7 C2.99 7.33 3.98 7.66 5 8 C4.21394124 9.79413411 3.42096137 11.58523715 2.625 13.375 C2.18414063 14.37273437 1.74328125 15.37046875 1.2890625 16.3984375 C0 19 0 19 -2 21 C-3.65 20.01 -5.3 19.02 -7 18 C-5.06375702 11.79522136 -2.74390859 5.89174281 0 0 Z " fill="#192F42" transform="translate(598,436)"/>
<path d="M0 0 C5.15988565 0.45470257 8.40146694 3.06968623 12.375 6.125 C13.02855469 6.58648437 13.68210937 7.04796875 14.35546875 7.5234375 C16.18444505 8.92501091 17.65037878 10.12979421 19 12 C18.9140625 15.8671875 18.9140625 15.8671875 18 19 C16.35 19.66 14.7 20.32 13 21 C13.66 20.01 14.32 19.02 15 18 C15.08511871 16.00150165 15.08511871 16.00150165 14 14 C11.57751552 11.65234438 11.57751552 11.65234438 8.625 9.4375 C1.76397302 4.06996834 1.76397302 4.06996834 0 2 C0 1.34 0 0.68 0 0 Z " fill="#2C3C4A" transform="translate(649,480)"/>
<path d="M0 0 C2.29943196 1.06759341 4.00738848 2.00689592 5.875 3.75 C8.04560154 5.36096949 8.04560154 5.36096949 11 4.25 C11.99 3.8375 12.98 3.425 14 3 C15.32911682 2.65023242 16.66082739 2.30903983 18 2 C18 2.66 18 3.32 18 4 C14.27034861 6.03435531 12.33094958 7 8 7 C8 10.3 8 13.6 8 17 C7.67 17 7.34 17 7 17 C6.814375 16.113125 6.62875 15.22625 6.4375 14.3125 C4.48437462 9.81181978 2.10924596 8.58730301 -2 6 C-1.34 5.67 -0.68 5.34 0 5 C0 4.34 0 3.68 0 3 C-0.66 2.67 -1.32 2.34 -2 2 C-1.34 2 -0.68 2 0 2 C0 1.34 0 0.68 0 0 Z " fill="#1B2E41" transform="translate(677,463)"/>
<path d="M0 0 C2.77869928 0.2137461 4.55155611 0.7010374 6.875 2.25 C8 4 8 4 7.6875 6.6875 C7.460625 7.450625 7.23375 8.21375 7 9 C0.58805513 10.33078101 0.58805513 10.33078101 -2 8.875 C-3 7 -3 7 -2.8125 4.4375 C-2 2 -2 2 0 0 Z " fill="#F5F8F8" transform="translate(634,502)"/>
<path d="M0 0 C3.87511727 0.54984772 5.59576506 2.27555331 8.25 5.0625 C8.95640625 5.79597656 9.6628125 6.52945312 10.390625 7.28515625 C10.92171875 7.85105469 11.4528125 8.41695313 12 9 C11 12 11 12 9 13 C8.608125 12.195625 8.21625 11.39125 7.8125 10.5625 C6.24450631 7.80400141 6.24450631 7.80400141 3.5 7.1875 C-0.40892592 6.89433056 -2.57908028 7.11259602 -6 9 C-4.47291037 5.56404834 -2.40072955 2.88087546 0 0 Z " fill="#233746" transform="translate(633,496)"/>
<path d="M0 0 C4.38104998 0.50069143 6.95617461 1.78224173 10 5 C10.3125 8.25 10.3125 8.25 10 11 C4.96014269 10.55530671 2.62365012 8.28656638 -1 5 C-0.67 3.35 -0.34 1.7 0 0 Z " fill="#1B2F40" transform="translate(667,457)"/>
<path d="M0 0 C-0.99 0.495 -0.99 0.495 -2 1 C-2.33 1.66 -2.66 2.32 -3 3 C-3.33 2.67 -3.66 2.34 -4 2 C-4.33 2.99 -4.66 3.98 -5 5 C-3.68 5.33 -2.36 5.66 -1 6 C-5.41225737 7.47075246 -8.48281619 8.36884358 -13 7 C-13.33 5.35 -13.66 3.7 -14 2 C-4.58997722 -0.29612756 -4.58997722 -0.29612756 0 0 Z " fill="#273A4B" transform="translate(638,452)"/>
<path d="M0 0 C1.32 0.33 2.64 0.66 4 1 C4 5 4 5 2.7578125 6.703125 C2.21898437 7.21359375 1.68015625 7.7240625 1.125 8.25 C0.59132813 8.77078125 0.05765625 9.2915625 -0.4921875 9.828125 C-2 11 -2 11 -4 11 C-4.8125 8.875 -4.8125 8.875 -5 6 C-3.55576519 3.69892439 -1.89127865 1.98353614 0 0 Z " fill="#2F404F" transform="translate(615,477)"/>
<path d="M0 0 C0.33 0 0.66 0 1 0 C1.25510162 3.91543017 1.47456892 7.83206809 1.6875 11.75 C1.76033203 12.86117187 1.83316406 13.97234375 1.90820312 15.1171875 C1.96298828 16.18710937 2.01777344 17.25703125 2.07421875 18.359375 C2.16062622 19.83615723 2.16062622 19.83615723 2.2487793 21.34277344 C1.95864307 24.44173588 1.06405265 25.72600371 -1 28 C-1 25.69 -1 23.38 -1 21 C-1.66 21 -2.32 21 -3 21 C-3 24.3 -3 27.6 -3 31 C-3.33 31 -3.66 31 -4 31 C-4 26.71 -4 22.42 -4 18 C-3.01 17.67 -2.02 17.34 -1 17 C-0.67 11.39 -0.34 5.78 0 0 Z " fill="#4A5B68" transform="translate(641,567)"/>
<path d="M0 0 C3.85073295 0.5714558 5.80735406 2.33188427 8.625 4.9375 C9.78902344 6.00291016 9.78902344 6.00291016 10.9765625 7.08984375 C12.33648213 8.37362889 13.67759959 9.67759959 15 11 C12.83203125 11.765625 12.83203125 11.765625 10 12 C7.32421875 10.234375 7.32421875 10.234375 4.6875 7.75 C3.80449219 6.94046875 2.92148437 6.1309375 2.01171875 5.296875 C0 3 0 3 0 0 Z " fill="#304151" transform="translate(642,489)"/>
<path d="M0 0 C1.32 0.33 2.64 0.66 4 1 C3.44449305 4.59905908 2.25112752 5.99909799 -0.5625 8.25 C-1.20316406 8.77078125 -1.84382812 9.2915625 -2.50390625 9.828125 C-2.99761719 10.21484375 -3.49132812 10.6015625 -4 11 C-4 10.01 -4 9.02 -4 8 C-4.66 7.67 -5.32 7.34 -6 7 C-4.02 4.69 -2.04 2.38 0 0 Z " fill="#3A4C59" transform="translate(625,486)"/>
<path d="M0 0 C1.32 0 2.64 0 4 0 C3.55530671 5.03985731 1.28656638 7.37634988 -2 11 C-2.99 9.68 -3.98 8.36 -5 7 C-4.26708288 5.8225266 -3.51296199 4.65823146 -2.75 3.5 C-2.33234375 2.8503125 -1.9146875 2.200625 -1.484375 1.53125 C-0.74960937 0.77328125 -0.74960937 0.77328125 0 0 Z " fill="#253849" transform="translate(604,470)"/>
<path d="M0 0 C0.33 0 0.66 0 1 0 C1.33 2.31 1.66 4.62 2 7 C2.99 7.33 3.98 7.66 5 8 C4.01 9.98 3.02 11.96 2 14 C1.34 12.68 0.68 11.36 0 10 C-1.32 10.33 -2.64 10.66 -4 11 C-2.7874262 7.27566618 -1.49140021 3.62197194 0 0 Z " fill="#294053" transform="translate(598,436)"/>
<path d="M0 0 C0.8353125 0.433125 0.8353125 0.433125 1.6875 0.875 C4.08494645 2.0413253 6.51596939 3.0339881 9 4 C8.01 4.33 7.02 4.66 6 5 C6 5.99 6 6.98 6 8 C0.46153846 7.50769231 0.46153846 7.50769231 -1.875 4.9375 C-2.431875 3.9784375 -2.431875 3.9784375 -3 3 C-2.01 2.67 -1.02 2.34 0 2 C0 1.34 0 0.68 0 0 Z " fill="#2F4455" transform="translate(672,478)"/>
<path d="M0 0 C1.76923828 0.01353516 1.76923828 0.01353516 3.57421875 0.02734375 C4.47785156 0.03894531 5.38148438 0.05054688 6.3125 0.0625 C6.3125 0.3925 6.3125 0.7225 6.3125 1.0625 C1.3625 1.7225 -3.5875 2.3825 -8.6875 3.0625 C-8.3575 4.0525 -8.0275 5.0425 -7.6875 6.0625 C-8.6775 6.3925 -9.6675 6.7225 -10.6875 7.0625 C-11.89632096 9.06266466 -11.89632096 9.06266466 -12.6875 11.0625 C-13.05408354 4.58619077 -13.05408354 4.58619077 -11.375 2.1875 C-7.68928966 -0.26964023 -4.28937344 -0.04246904 0 0 Z " fill="#4E5D6B" transform="translate(598.6875,547.9375)"/>
<path d="M0 0 C2.31 1.65 4.62 3.3 7 5 C6.67 7.31 6.34 9.62 6 12 C4.35 12.66 2.7 13.32 1 14 C1.66 13.01 2.32 12.02 3 11 C2.75317172 8.36716504 2.3313406 7.30585287 0.375 5.5 C-0.07875 5.005 -0.5325 4.51 -1 4 C-0.67 2.68 -0.34 1.36 0 0 Z " fill="#334554" transform="translate(661,487)"/>
<path d="M0 0 C1.670625 0.061875 1.670625 0.061875 3.375 0.125 C2.75625 0.66125 2.1375 1.1975 1.5 1.75 C-0.9032902 4.43603023 -1.68522153 6.67914562 -2.625 10.125 C-3.615 9.465 -4.605 8.805 -5.625 8.125 C-5.9375 5.125 -5.9375 5.125 -5.625 2.125 C-3.625 0.125 -3.625 0.125 0 0 Z " fill="#152B3E" transform="translate(648.625,381.875)"/>
<path d="M0 0 C0 0.66 0 1.32 0 2 C-3.72965139 4.03435531 -5.66905042 5 -10 5 C-10 8.3 -10 11.6 -10 15 C-10.33 15 -10.66 15 -11 15 C-11.433125 13.576875 -11.433125 13.576875 -11.875 12.125 C-12.76825109 8.94788422 -12.76825109 8.94788422 -15 7 C-14.01 6.34 -13.02 5.68 -12 5 C-12 4.34 -12 3.68 -12 3 C-10.63875 2.814375 -10.63875 2.814375 -9.25 2.625 C-6.00672409 2.00129309 -3.21185172 0 0 0 Z " fill="#394B5B" transform="translate(695,465)"/>
<path d="M0 0 C-0.66 0.66 -1.32 1.32 -2 2 C-2.66 1.67 -3.32 1.34 -4 1 C-4 1.66 -4 2.32 -4 3 C-2.68 3.33 -1.36 3.66 0 4 C-2.90094791 5.45047396 -4.55972596 4.45356803 -7.625 3.5625 C-8.62789062 3.27503906 -9.63078125 2.98757813 -10.6640625 2.69140625 C-11.43492187 2.46324219 -12.20578125 2.23507812 -13 2 C-13 1.67 -13 1.34 -13 1 C-8.23947038 -0.97387813 -5.03511899 -1.0070238 0 0 Z " fill="#283E52" transform="translate(671,393)"/>
<path d="M0 0 C0.99 0.66 1.98 1.32 3 2 C2.67 3.65 2.34 5.3 2 7 C-0.31 7.33 -2.62 7.66 -5 8 C-5.33 7.34 -5.66 6.68 -6 6 C-3.525 6.495 -3.525 6.495 -1 7 C-1 6.34 -1 5.68 -1 5 C-1.99 4.67 -2.98 4.34 -4 4 C-2.68 3.67 -1.36 3.34 0 3 C0 2.01 0 1.02 0 0 Z " fill="#D3D8DB" transform="translate(639,504)"/>
<path d="M0 0 C2.31 1.98 4.62 3.96 7 6 C6 9 6 9 4 10 C3.5875 9.236875 3.175 8.47375 2.75 7.6875 C1.04124191 5.0633358 -0.41017753 3.69678024 -3 2 C-2.01 2 -1.02 2 0 2 C0 1.34 0 0.68 0 0 Z " fill="#2E4354" transform="translate(638,499)"/>
<path d="M0 0 C0.66 0.33 1.32 0.66 2 1 C-1.3 4.3 -4.6 7.6 -8 11 C-8.66 10.67 -9.32 10.34 -10 10 C-8.90033225 8.70450101 -7.79508199 7.41373929 -6.6875 6.125 C-6.07261719 5.40570312 -5.45773437 4.68640625 -4.82421875 3.9453125 C-3 2 -3 2 0 0 Z " fill="#D9DCDE" transform="translate(535,533)"/>
<path d="M0 0 C2.375 -0.1875 2.375 -0.1875 5 0 C5.66 0.99 6.32 1.98 7 3 C6.67 3.99 6.34 4.98 6 6 C3.69 5.34 1.38 4.68 -1 4 C-0.67 2.68 -0.34 1.36 0 0 Z " fill="#112739" transform="translate(634,453)"/>
<path d="M0 0 C0.66 0 1.32 0 2 0 C2.33 0.99 2.66 1.98 3 3 C2.401875 3.53625 1.80375 4.0725 1.1875 4.625 C-1.21315594 7.23142645 -2.54018514 9.7884073 -4 13 C-4.33 12.34 -4.66 11.68 -5 11 C-4.00390625 8.3984375 -4.00390625 8.3984375 -2.5625 5.375 C-2.08941406 4.37210938 -1.61632812 3.36921875 -1.12890625 2.3359375 C-0.75636719 1.56507813 -0.38382812 0.79421875 0 0 Z " fill="#445565" transform="translate(395,522)"/>
<path d="M0 0 C0.66 0.33 1.32 0.66 2 1 C1.67 2.65 1.34 4.3 1 6 C1.99 6 2.98 6 4 6 C4 6.66 4 7.32 4 8 C0.62496331 6.8141763 -1.64722731 5.72426311 -4 3 C-2.68 2.01 -1.36 1.02 0 0 Z " fill="#CAD1D2" transform="translate(568,388)"/>
<path d="M0 0 C0.33 0 0.66 0 1 0 C1.05384521 2.29141286 1.09272087 4.58318188 1.125 6.875 C1.14820313 8.15117188 1.17140625 9.42734375 1.1953125 10.7421875 C1 14 1 14 -1 16 C-1.99 16 -2.98 16 -4 16 C-2.125 12.125 -2.125 12.125 -1 11 C-0.76636119 9.15108054 -0.58696365 7.29511969 -0.4375 5.4375 C-0.35371094 4.42558594 -0.26992188 3.41367187 -0.18359375 2.37109375 C-0.12300781 1.58863281 -0.06242188 0.80617188 0 0 Z " fill="#1D3346" transform="translate(640,570)"/>
<path d="M0 0 C-0.66 1.65 -1.32 3.3 -2 5 C-3.98 4.01 -5.96 3.02 -8 2 C-7.67 1.34 -7.34 0.68 -7 0 C-2.52459016 -1.26229508 -2.52459016 -1.26229508 0 0 Z " fill="#223546" transform="translate(599,452)"/>
<path d="M0 0 C2.625 0.375 2.625 0.375 5 1 C5 1.33 5 1.66 5 2 C3.35 2 1.7 2 0 2 C-0.33 3.98 -0.66 5.96 -1 8 C-1.66 7.67 -2.32 7.34 -3 7 C-2.25 2.25 -2.25 2.25 0 0 Z " fill="#BEC7C9" transform="translate(634,502)"/>
<path d="M0 0 C0.78375 0.04125 1.5675 0.0825 2.375 0.125 C1.00516497 3.28615776 0.3859362 4.1177092 -2.625 6.125 C-2.625 5.135 -2.625 4.145 -2.625 3.125 C-3.285 2.795 -3.945 2.465 -4.625 2.125 C-2.625 0.125 -2.625 0.125 0 0 Z " fill="#253A4C" transform="translate(623.625,490.875)"/>
<path d="M0 0 C-1.44077046 3.36179774 -3.24750021 5.59156268 -6 8 C-6.66 8 -7.32 8 -8 8 C-6.48291727 4.46014029 -4.24676932 0 0 0 Z " fill="#D8DCDD" transform="translate(572,536)"/>
<path d="M0 0 C4.95 0 9.9 0 15 0 C15 0.33 15 0.66 15 1 C14.25234375 1.04898437 13.5046875 1.09796875 12.734375 1.1484375 C11.74953125 1.22320312 10.7646875 1.29796875 9.75 1.375 C8.28820312 1.47941406 8.28820312 1.47941406 6.796875 1.5859375 C4.10366811 1.98465249 2.33036721 2.63507063 0 4 C0 2.68 0 1.36 0 0 Z " fill="#566774" transform="translate(511,352)"/>
<path d="M0 0 C0.66 0 1.32 0 2 0 C0.44499019 3.81684226 -2.03595495 6.19195732 -5 9 C-5.66 8.67 -6.32 8.34 -7 8 C-5.88200014 6.66079162 -4.75538103 5.32877444 -3.625 4 C-2.68527344 2.88625 -2.68527344 2.88625 -1.7265625 1.75 C-1.15679688 1.1725 -0.58703125 0.595 0 0 Z " fill="#D3D7D9" transform="translate(656,540)"/>
<path d="M0 0 C1.32 0.33 2.64 0.66 4 1 C4 2.32 4 3.64 4 5 C1.03 4.505 1.03 4.505 -2 4 C-1.34 2.68 -0.68 1.36 0 0 Z " fill="#45535E" transform="translate(615,477)"/>
<path d="M0 0 C1.485 0.99 1.485 0.99 3 2 C3.1875 5.125 3.1875 5.125 3 8 C1.68 8.33 0.36 8.66 -1 9 C-0.34 8.67 0.32 8.34 1 8 C0.7525 6.8553125 0.7525 6.8553125 0.5 5.6875 C0 3 0 3 0 0 Z " fill="#E4E7E7" transform="translate(681,473)"/>
<path d="M0 0 C0.33 0.66 0.66 1.32 1 2 C0.67 2.99 0.34 3.98 0 5 C-0.66 5 -1.32 5 -2 5 C-2 5.66 -2 6.32 -2 7 C-1.34 7.33 -0.68 7.66 0 8 C-0.66 8 -1.32 8 -2 8 C-2.33 8.99 -2.66 9.98 -3 11 C-3.75 9.4375 -3.75 9.4375 -4 7 C-2.86915563 4.49713591 -1.47860484 2.32992278 0 0 Z " fill="#4A5B69" transform="translate(422,555)"/>
<path d="M0 0 C2.27795022 2.27795022 3.05219877 3.93787293 4 7 C3.625 9.3125 3.625 9.3125 3 11 C3 10.34 3 9.68 3 9 C2.01 8.67 1.02 8.34 0 8 C0 5.36 0 2.72 0 0 Z " fill="#B9C0C5" transform="translate(732,553)"/>
<path d="M0 0 C1.32 0 2.64 0 4 0 C3.67 4.62 3.34 9.24 3 14 C2.67 14 2.34 14 2 14 C1.93941406 13.24074219 1.87882813 12.48148438 1.81640625 11.69921875 C1.73261719 10.70535156 1.64882813 9.71148438 1.5625 8.6875 C1.48128906 7.70136719 1.40007813 6.71523438 1.31640625 5.69921875 C1.08187441 2.90624401 1.08187441 2.90624401 0 0 Z " fill="#4D5D6A" transform="translate(557,549)"/>
<path d="M0 0 C0.33 0 0.66 0 1 0 C1.19622241 4.21878192 0.80230168 7.17010894 -1 11 C-1.66 10.67 -2.32 10.34 -3 10 C-2.01 6.7 -1.02 3.4 0 0 Z " fill="#203244" transform="translate(355,546)"/>
<path d="M0 0 C1.05960937 0.00676758 1.05960937 0.00676758 2.140625 0.01367188 C3.88545275 0.02546125 5.630237 0.04339676 7.375 0.0625 C7.375 0.3925 7.375 0.7225 7.375 1.0625 C6.45976562 1.12308594 5.54453125 1.18367187 4.6015625 1.24609375 C3.41304688 1.32988281 2.22453125 1.41367187 1 1.5 C-0.18335938 1.58121094 -1.36671875 1.66242187 -2.5859375 1.74609375 C-5.54018901 1.87334936 -5.54018901 1.87334936 -7.625 3.0625 C-8.285 2.4025 -8.945 1.7425 -9.625 1.0625 C-6.55966836 -0.47016582 -3.35745728 -0.04026471 0 0 Z " fill="#435463" transform="translate(438.625,548.9375)"/>
<path d="M0 0 C2.0625 0.4375 2.0625 0.4375 4 1 C4.33 2.65 4.66 4.3 5 6 C3.125 5.75 3.125 5.75 1 5 C-0.25 2.9375 -0.25 2.9375 -1 1 C-0.67 0.67 -0.34 0.34 0 0 Z " fill="#1C3145" transform="translate(654,467)"/>
<path d="M0 0 C1.65 0.33 3.3 0.66 5 1 C4.01 1.495 4.01 1.495 3 2 C3 2.99 3 3.98 3 5 C1.68 4.67 0.36 4.34 -1 4 C-0.67 2.68 -0.34 1.36 0 0 Z " fill="#12283A" transform="translate(667,457)"/>
<path d="M0 0 C0.66 0.33 1.32 0.66 2 1 C-0.64 3.64 -3.28 6.28 -6 9 C-6 6 -6 6 -3.5625 3.375 C-2.716875 2.59125 -1.87125 1.8075 -1 1 C-0.67 0.67 -0.34 0.34 0 0 Z " fill="#D2D8D8" transform="translate(513,354)"/>
<path d="M0 0 C0.99 0 1.98 0 3 0 C3.66 2.31 4.32 4.62 5 7 C3.0625 6.3125 3.0625 6.3125 1 5 C0.25 2.375 0.25 2.375 0 0 Z " fill="#2B3E52" transform="translate(315,602)"/>
<path d="M0 0 C0.66 0.33 1.32 0.66 2 1 C0.25 6.75 0.25 6.75 -2 9 C-2.33 7.35 -2.66 5.7 -3 4 C-2.34 3.67 -1.68 3.34 -1 3 C-0.67 2.01 -0.34 1.02 0 0 Z " fill="#2D3D4F" transform="translate(343,580)"/>
<path d="M0 0 C1.670625 0.061875 1.670625 0.061875 3.375 0.125 C3.375 0.455 3.375 0.785 3.375 1.125 C2.42625 1.351875 1.4775 1.57875 0.5 1.8125 C-2.81823388 2.81583714 -2.81823388 2.81583714 -4 5.75 C-4.20625 6.53375 -4.4125 7.3175 -4.625 8.125 C-4.955 8.125 -5.285 8.125 -5.625 8.125 C-5.75 5.25 -5.75 5.25 -5.625 2.125 C-3.625 0.125 -3.625 0.125 0 0 Z " fill="#435464" transform="translate(648.625,381.875)"/>
<path d="M0 0 C0.99 0.33 1.98 0.66 3 1 C3 2.98 3 4.96 3 7 C1.35 7.66 -0.3 8.32 -2 9 C-1.34 8.01 -0.68 7.02 0 6 C0.16699232 2.87478167 0.16699232 2.87478167 0 0 Z " fill="#2B3E4F" transform="translate(664,492)"/>
<path d="M0 0 C0.66 0.33 1.32 0.66 2 1 C-0.16687491 3.27521866 -2.45620509 5.15794162 -5 7 C-5.66 6.67 -6.32 6.34 -7 6 C-4.69 4.02 -2.38 2.04 0 0 Z " fill="#3F4E5D" transform="translate(441,418)"/>
<path d="M0 0 C1.10844919 3.32534757 0.84454356 5.62182575 0 9 C-0.66 9 -1.32 9 -2 9 C-1.125 2.25 -1.125 2.25 0 0 Z " fill="#445666" transform="translate(400,508)"/>
<path d="M0 0 C0.66 1.32 1.32 2.64 2 4 C1 5 1 5 -1.5625 5.0625 C-2.7690625 5.0315625 -2.7690625 5.0315625 -4 5 C-3.67 4.01 -3.34 3.02 -3 2 C-2.01 2 -1.02 2 0 2 C0 1.34 0 0.68 0 0 Z " fill="#1B2C3D" transform="translate(616,479)"/>
<path d="M0 0 C0.66 0.33 1.32 0.66 2 1 C-0.97 3.475 -0.97 3.475 -4 6 C-4.99 5.34 -5.98 4.68 -7 4 C-1.7265625 0.77734375 -1.7265625 0.77734375 0 0 Z " fill="#3B4A59" transform="translate(366,479)"/>
<path d="M0 0 C-0.33 0.99 -0.66 1.98 -1 3 C-3.97 2.505 -3.97 2.505 -7 2 C-7 1.34 -7 0.68 -7 0 C-3.98968256 -0.93423645 -3.13349732 -1.04449911 0 0 Z " fill="#122B40" transform="translate(674,394)"/>
</svg>
